# xmcd
#
# Track frame offsets:
#	150
#	19125
#	36222
#	54347
#	68560
#	85512
#	102048
#	118745
#	137954
#	154447
#	171965
#	190574
#
# Disc length: 2804 seconds
#
# Revision: 1
# Processed by: cddbd v1.5.2PL0 Copyright (c) Steve Scherf et al.
# Submitted via: EasyCDDAExtractor 16.0.9.1
#
DISCID=970af20c
DTITLE=Pork Band - Amore Infinito
DYEAR=2013
DGENRE=Comedy
TTITLE0=ulea glie' puork
TTITLE1=la mia banca fa glie scruock
TTITLE2=amore stasera
TTITLE3=mamma scusa
TTITLE4=l'isola degl'uaie
TTITLE5=la prima cosa bella
TTITLE6=t'immagggini
TTITLE7=passa man' man'!
TTITLE8=tu m'uo' caga' aglie cazz'
TTITLE9=insu' hit
TTITLE10=la parannanza
TTITLE11=error track
EXTD=
EXTT0=
EXTT1=
EXTT2=
EXTT3=
EXTT4=
EXTT5=
EXTT6=
EXTT7=
EXTT8=
EXTT9=
EXTT10=
EXTT11=
PLAYORDER=
